<svg width="24" height="24" viewBox="0 0 24 24" fill="none" xmlns="http://www.w3.org/2000/svg">
<path d="M9.67308 18.4318C5.44231 19.7159 5.44231 16.2917 3.75 15.8637M15.5962 21V17.6871C15.6279 17.2789 15.5734 16.8685 15.4362 16.4833C15.2991 16.0981 15.0825 15.7468 14.8008 15.4528C17.4577 15.1532 20.25 14.1345 20.25 9.46044C20.2498 8.26524 19.7954 7.11588 18.9808 6.25025C19.3665 5.20459 19.3392 4.04878 18.9046 3.02294C18.9046 3.02294 17.9062 2.72332 15.5962 4.28989C13.6568 3.75813 11.6125 3.75813 9.67308 4.28989C7.36308 2.72332 6.36462 3.02294 6.36462 3.02294C5.93001 4.04878 5.90274 5.20459 6.28846 6.25025C5.4678 7.12231 5.0129 8.28205 5.01923 9.48612C5.01923 14.1259 7.81154 15.1446 10.4685 15.4785C10.1901 15.7695 9.97538 16.1166 9.83834 16.4971C9.7013 16.8776 9.64499 17.2831 9.67308 17.6871V21" stroke="#656565" stroke-width="2.25" stroke-linecap="round" stroke-linejoin="round"/>
</svg>
