<svg width="24" height="24" viewBox="0 0 24 24" fill="none" xmlns="http://www.w3.org/2000/svg">
<path fill-rule="evenodd" clip-rule="evenodd" d="M12.0099 0.5C5.36875 0.5 0 5.77081 0 12.2915C0 17.5039 3.43994 21.916 8.21205 23.4776C8.80869 23.595 9.02724 23.2239 9.02724 22.9117C9.02724 22.6384 9.00757 21.7014 9.00757 20.7251C5.6667 21.428 4.97099 19.3194 4.97099 19.3194C4.43409 17.9529 3.63858 17.6016 3.63858 17.6016C2.54511 16.8793 3.71823 16.8793 3.71823 16.8793C4.93117 16.9574 5.56763 18.0897 5.56763 18.0897C6.64118 19.8856 8.37111 19.3781 9.06706 19.0657C9.16638 18.3043 9.48473 17.7772 9.82275 17.4845C7.15817 17.2111 4.35469 16.196 4.35469 11.6667C4.35469 10.3782 4.8316 9.32406 5.58729 8.50421C5.46807 8.21144 5.0504 7.00083 5.70677 5.38053C5.70677 5.38053 6.72083 5.06812 9.00732 6.5909C9.98625 6.33279 10.9958 6.20149 12.0099 6.20038C13.024 6.20038 14.0577 6.33718 15.0123 6.5909C17.299 5.06812 18.3131 5.38053 18.3131 5.38053C18.9695 7.00083 18.5515 8.21144 18.4323 8.50421C19.2079 9.32406 19.6652 10.3782 19.6652 11.6667C19.6652 16.196 16.8617 17.1915 14.1772 17.4845C14.6148 17.8553 14.9924 18.558 14.9924 19.6709C14.9924 21.2521 14.9727 22.5212 14.9727 22.9115C14.9727 23.2239 15.1915 23.595 15.7879 23.4779C20.56 21.9158 23.9999 17.5039 23.9999 12.2915C24.0196 5.77081 18.6312 0.5 12.0099 0.5Z" fill="#333333"/>
</svg>
