<svg width="32" height="32" viewBox="0 0 32 32" fill="none" xmlns="http://www.w3.org/2000/svg">
<path fill-rule="evenodd" clip-rule="evenodd" d="M16.0099 4.5C9.36875 4.5 4 9.77081 4 16.2915C4 21.5039 7.43994 25.916 12.2121 27.4776C12.8087 27.595 13.0272 27.2239 13.0272 26.9117C13.0272 26.6384 13.0076 25.7014 13.0076 24.7251C9.6667 25.428 8.97099 23.3194 8.97099 23.3194C8.43409 21.9529 7.63858 21.6016 7.63858 21.6016C6.54511 20.8793 7.71823 20.8793 7.71823 20.8793C8.93117 20.9574 9.56763 22.0897 9.56763 22.0897C10.6412 23.8856 12.3711 23.3781 13.0671 23.0657C13.1664 22.3043 13.4847 21.7772 13.8228 21.4845C11.1582 21.2111 8.35469 20.196 8.35469 15.6667C8.35469 14.3782 8.8316 13.3241 9.58729 12.5042C9.46807 12.2114 9.0504 11.0008 9.70677 9.38053C9.70677 9.38053 10.7208 9.06812 13.0073 10.5909C13.9863 10.3328 14.9958 10.2015 16.0099 10.2004C17.024 10.2004 18.0577 10.3372 19.0123 10.5909C21.299 9.06812 22.3131 9.38053 22.3131 9.38053C22.9695 11.0008 22.5515 12.2114 22.4323 12.5042C23.2079 13.3241 23.6652 14.3782 23.6652 15.6667C23.6652 20.196 20.8617 21.1915 18.1772 21.4845C18.6148 21.8553 18.9924 22.558 18.9924 23.6709C18.9924 25.2521 18.9727 26.5212 18.9727 26.9115C18.9727 27.2239 19.1915 27.595 19.7879 27.4779C24.56 25.9158 27.9999 21.5039 27.9999 16.2915C28.0196 9.77081 22.6312 4.5 16.0099 4.5Z" fill="#333333"/>
</svg>
