<svg width="670" height="704" viewBox="0 0 670 704" fill="none" xmlns="http://www.w3.org/2000/svg">
<path d="M292.915 309.633C229.75 265.415 64.8322 270.908 64.8322 270.908C64.8322 270.908 20.4313 270.908 3.78099 353.85C-12.8693 436.792 31.5315 456.017 20.4313 507.925C9.33111 559.833 20.4313 569.72 150.198 617.782C279.965 665.845 254.064 617.782 313.266 569.72C372.467 521.657 356.081 353.85 292.915 309.633Z" fill="#0C0093"/>
<path fill-rule="evenodd" clip-rule="evenodd" d="M192.815 123.367C239.447 92.8081 289.316 62.2402 344.528 69.8277C401.682 77.6821 449.36 115.842 482.328 163.153C515.435 210.663 532.062 268.206 522.592 325.358C512.965 383.453 483.035 440.159 431.652 468.977C383.376 496.051 325.663 479.343 271.997 465.9C223.126 453.658 177.2 434.836 144.04 396.93C106.127 353.593 68.0823 301.072 78.1934 244.363C88.327 187.528 144.508 155.024 192.815 123.367Z" fill="#FDFF92"/>
<path fill-rule="evenodd" clip-rule="evenodd" d="M277.647 460.921C269.301 507.178 251.675 556.053 276.629 596.659C303.064 639.676 354.198 670.292 405.615 669.16C452.566 668.127 475.221 616.656 514.051 591.434C555.82 564.302 622.216 564.575 637.983 518.225C654.348 470.115 617.719 420.766 585.973 379.998C554.906 340.101 515.674 304.2 464.955 296.023C414.145 287.83 361.224 304.324 323.363 337.656C288.754 368.125 285.727 416.143 277.647 460.921Z" fill="#FFA7A7"/>
</svg>
